<?xml version="1.0" encoding="utf-8"?>
<!-- Generator: Adobe Illustrator 23.0.0, SVG Export Plug-In . SVG Version: 6.00 Build 0)  -->
<svg version="1.1" xmlns="http://www.w3.org/2000/svg" xmlns:xlink="http://www.w3.org/1999/xlink" x="0px" y="0px"
	 viewBox="0 0 511.9 654.2" style="enable-background:new 0 0 511.9 654.2;" xml:space="preserve">
<style type="text/css">
	.st0{fill:#1D7C56;}
	.st1{fill:#186646;}
	.st2{fill:#1D7C55;}
	.st3{fill:#364652;stroke:#000000;stroke-width:2;stroke-miterlimit:10;}
	.st4{fill:#2A373F;stroke:#000000;stroke-width:2;stroke-miterlimit:10;}
	.st5{opacity:0.5;fill:#2E2E2E;}
	.st6{opacity:0.8;}
	.st7{fill:#DE4E26;}
	.st8{fill:url(#SVGID_1_);stroke:#000000;stroke-width:2;stroke-miterlimit:10;}
	.st9{fill:url(#SVGID_2_);stroke:#000000;stroke-width:2;stroke-miterlimit:10;}
	.st10{fill:url(#SVGID_3_);stroke:#000000;stroke-width:2;stroke-miterlimit:10;}
	.st11{fill:url(#SVGID_4_);stroke:#000000;stroke-width:2;stroke-miterlimit:10;}
	.st12{fill:url(#SVGID_5_);stroke:#000000;stroke-width:2;stroke-miterlimit:10;}
	.st13{fill:url(#SVGID_6_);stroke:#000000;stroke-width:2;stroke-miterlimit:10;}
	.st14{fill:url(#SVGID_7_);stroke:#000000;stroke-width:2;stroke-miterlimit:10;}
	.st15{fill:url(#SVGID_8_);stroke:#000000;stroke-width:2;stroke-miterlimit:10;}
</style>
<g id="logo">
	<g>
		<path class="st0" d="M333.6,93.5c-8-35.9-32.3-62.7-72.3-79.9l-5.9-2.5l-5.9,2.5c-40,17.1-64.3,44-72.3,79.9
			c-6.5,29.1-0.2,58.1,6.2,77.3l3.4,10.3H324l3.4-10.3C333.8,151.6,340.1,122.6,333.6,93.5z"/>
		<path class="st1" d="M333.6,93.5c-8-35.9-32.3-62.7-72.3-79.9l-5.9-2.5v170H324l3.4-10.3C333.8,151.6,340.1,122.6,333.6,93.5z"/>
		<path class="st2" d="M172.3,232c-11.8-20.4-30.9-34.9-53.7-40.9c-22.8-6-46.5-2.8-66.9,9C8.3,225.3-6.6,275.1,17,315.8l7.3,12.5
			l155.9-82.8L172.3,232z"/>
		<path class="st1" d="M459,200.1c-20.4-11.8-44.1-15-66.9-9c-22.8,6-41.8,20.6-53.7,40.9l-7.8,13.5l155.9,82.8l7.3-12.5
			C517.4,275.1,502.4,225.3,459,200.1z"/>
		<path class="st0" d="M162.6,356.6c-22.3,7.6-40.3,23.4-50.7,44.6c-22.2,45.1-7.1,94.8,35.2,115.6l13,6.4L244,367.8l-14-6.9
			C208.9,350.5,184.9,349,162.6,356.6z"/>
		<path class="st1" d="M398.8,401.1c-10.4-21.1-28.4-37-50.7-44.6c-22.3-7.6-46.2-6.1-67.4,4.3l-14,6.9l83.9,155.3l13-6.4
			C405.9,495.9,421,446.3,398.8,401.1z"/>
		<path class="st3" d="M255.4,448.1c-90.5,0-164.2-73.7-164.2-164.2s73.7-164.2,164.2-164.2s164.2,73.7,164.2,164.2
			S345.9,448.1,255.4,448.1z"/>
		<g>
			<path class="st4" d="M255.4,119.8c90.5,0,164.2,73.7,164.2,164.2c0,90.5-73.7,164.2-164.2,164.2"/>
		</g>
	</g>
	<path class="st5" d="M275.5,318.8h-40.3l-20.1-34.9l20.1-34.9h40.3l20.1,34.9L275.5,318.8z M418.8,268.2l-97.7-0.2l-19-32.9
		l49-84.6c-8.6-6.2-17.9-11.6-27.7-16.1l-49,84.5h-37.9l-48.8-84.8c-9.8,4.4-19.1,9.8-27.7,16l48.7,84.6l-19,32.9L92,267.7
		c-0.5,5.3-0.8,10.8-0.8,16.3c0,5.3,0.3,10.6,0.8,15.7l97.7,0.2l19,32.9l-49,84.5c8.6,6.2,17.9,11.6,27.7,16.1l49-84.5h37.9
		l48.8,84.8c9.8-4.4,19.1-9.8,27.7-16L302,332.9l19-32.9l97.8,0.2c0.5-5.3,0.8-10.8,0.8-16.3C419.6,278.6,419.3,273.4,418.8,268.2z"
		/>
	<path class="st5" d="M418.8,300.2c0.5-5.3,0.8-10.8,0.8-16.3c0-5.3-0.3-10.6-0.8-15.7l-97.7-0.2l-19-32.9l49-84.6
		c-8.6-6.2-17.9-11.6-27.7-16.1l-49,84.5h-19.1v30h20.1l20.1,34.9l-20.1,34.9h-20.1v30h18.9l48.8,84.8c9.8-4.4,19.1-9.8,27.7-16
		L302,332.9l19-32.9L418.8,300.2z"/>
	<g class="st6">
		<g>
			<g id="steering_x5F_wheel_1_">
				<path class="st7" d="M255.4,152.4c-69.6,0-126,56.4-126,126s56.4,126,126,126s126-56.4,126-126S325,152.4,255.4,152.4z
					 M255.4,183.9c41,0,75.6,26.4,88.7,63H166.7C179.7,210.3,214.4,183.9,255.4,183.9z M255.4,294.2c-8.7,0-15.8-7-15.8-15.8
					s7-15.8,15.8-15.8c8.7,0,15.7,7,15.7,15.8S264.1,294.2,255.4,294.2z M160.9,278.4c43,0,77.9,41.5,78.6,92.9
					C195,363.7,160.9,325.1,160.9,278.4z M271.3,371.3c0.7-51.4,35.6-92.9,78.6-92.9C349.9,325.1,315.8,363.7,271.3,371.3z"/>
			</g>
		</g>
	</g>
</g>
<g id="Titre">
	<g>
		<linearGradient id="SVGID_1_" gradientUnits="userSpaceOnUse" x1="24.2436" y1="623.6677" x2="83.598" y2="564.3133">
			<stop  offset="0" style="stop-color:#2E2E2E"/>
			<stop  offset="0.1815" style="stop-color:#804632"/>
			<stop  offset="0.3133" style="stop-color:#C14E2B"/>
			<stop  offset="0.3771" style="stop-color:#DE4F26"/>
			<stop  offset="0.6201" style="stop-color:#D75028"/>
			<stop  offset="0.676" style="stop-color:#D45029"/>
			<stop  offset="0.7153" style="stop-color:#CA512D"/>
			<stop  offset="0.7815" style="stop-color:#B15236"/>
			<stop  offset="0.8667" style="stop-color:#895043"/>
			<stop  offset="0.9663" style="stop-color:#574B4E"/>
			<stop  offset="1" style="stop-color:#444851"/>
		</linearGradient>
		<path class="st8" d="M81,588.3H58.2v-15.3c0-4.4-0.2-7.2-0.7-8.3c-0.5-1.1-1.6-1.6-3.2-1.6c-1.9,0-3.1,0.7-3.6,2
			c-0.5,1.3-0.8,4.2-0.8,8.7v40.8c0,4.3,0.3,7,0.8,8.3c0.5,1.3,1.6,2,3.4,2c1.7,0,2.8-0.7,3.3-2c0.5-1.3,0.8-4.4,0.8-9.2v-11H81v3.4
			c0,9.1-0.6,15.5-1.9,19.3c-1.3,3.8-4.1,7.1-8.5,10c-4.4,2.9-9.8,4.3-16.2,4.3c-6.7,0-12.2-1.2-16.5-3.6s-7.2-5.8-8.6-10.1
			c-1.4-4.3-2.1-10.7-2.1-19.3V581c0-6.3,0.2-11.1,0.7-14.2s1.7-6.2,3.9-9.1c2.1-2.9,5.1-5.2,8.9-6.9c3.8-1.7,8.2-2.5,13.1-2.5
			c6.7,0,12.3,1.3,16.6,3.9c4.4,2.6,7.2,5.8,8.6,9.7c1.4,3.9,2.1,9.9,2.1,18.1V588.3z"/>
		<linearGradient id="SVGID_2_" gradientUnits="userSpaceOnUse" x1="79.4061" y1="633.2524" x2="145.6081" y2="567.0504">
			<stop  offset="0" style="stop-color:#2E2E2E"/>
			<stop  offset="0.1815" style="stop-color:#804632"/>
			<stop  offset="0.3133" style="stop-color:#C14E2B"/>
			<stop  offset="0.3771" style="stop-color:#DE4F26"/>
			<stop  offset="0.6201" style="stop-color:#D75028"/>
			<stop  offset="0.676" style="stop-color:#D45029"/>
			<stop  offset="0.7153" style="stop-color:#CA512D"/>
			<stop  offset="0.7815" style="stop-color:#B15236"/>
			<stop  offset="0.8667" style="stop-color:#895043"/>
			<stop  offset="0.9663" style="stop-color:#574B4E"/>
			<stop  offset="1" style="stop-color:#444851"/>
		</linearGradient>
		<path class="st9" d="M128.6,550.1l13.1,87.8h-23.3l-1.2-15.8H109l-1.4,15.8H84l11.6-87.8H128.6z M116.6,606.5
			c-1.2-9.9-2.3-22.2-3.5-36.9c-2.3,16.8-3.8,29.1-4.4,36.9H116.6z"/>
		<linearGradient id="SVGID_3_" gradientUnits="userSpaceOnUse" x1="136.3748" y1="628.6612" x2="200.3226" y2="564.7134">
			<stop  offset="0" style="stop-color:#2E2E2E"/>
			<stop  offset="0.1815" style="stop-color:#804632"/>
			<stop  offset="0.3133" style="stop-color:#C14E2B"/>
			<stop  offset="0.3771" style="stop-color:#DE4F26"/>
			<stop  offset="0.6201" style="stop-color:#D75028"/>
			<stop  offset="0.676" style="stop-color:#D45029"/>
			<stop  offset="0.7153" style="stop-color:#CA512D"/>
			<stop  offset="0.7815" style="stop-color:#B15236"/>
			<stop  offset="0.8667" style="stop-color:#895043"/>
			<stop  offset="0.9663" style="stop-color:#574B4E"/>
			<stop  offset="1" style="stop-color:#444851"/>
		</linearGradient>
		<path class="st10" d="M145.6,550.1h16.2c10.8,0,18.1,0.4,21.9,1.2c3.8,0.8,6.9,3,9.3,6.4c2.4,3.4,3.6,8.9,3.6,16.3
			c0,6.8-0.8,11.4-2.5,13.8c-1.7,2.3-5,3.8-10,4.2c4.5,1.1,7.6,2.6,9.1,4.5c1.6,1.9,2.5,3.6,2.9,5.2c0.4,1.6,0.6,5.9,0.6,13v23.1
			h-21.2v-29.2c0-4.7-0.4-7.6-1.1-8.7c-0.7-1.1-2.7-1.7-5.8-1.7v39.6h-22.8V550.1z M168.4,565.1v19.5c2.6,0,4.4-0.4,5.4-1.1
			s1.5-3,1.5-6.9v-4.8c0-2.8-0.5-4.6-1.5-5.5C172.9,565.5,171,565.1,168.4,565.1z"/>
		<linearGradient id="SVGID_4_" gradientUnits="userSpaceOnUse" x1="195.5866" y1="633.2524" x2="261.7887" y2="567.0504">
			<stop  offset="0" style="stop-color:#2E2E2E"/>
			<stop  offset="0.1815" style="stop-color:#804632"/>
			<stop  offset="0.3133" style="stop-color:#C14E2B"/>
			<stop  offset="0.3771" style="stop-color:#DE4F26"/>
			<stop  offset="0.6201" style="stop-color:#D75028"/>
			<stop  offset="0.676" style="stop-color:#D45029"/>
			<stop  offset="0.7153" style="stop-color:#CA512D"/>
			<stop  offset="0.7815" style="stop-color:#B15236"/>
			<stop  offset="0.8667" style="stop-color:#895043"/>
			<stop  offset="0.9663" style="stop-color:#574B4E"/>
			<stop  offset="1" style="stop-color:#444851"/>
		</linearGradient>
		<path class="st11" d="M244.8,550.1l13.1,87.8h-23.3l-1.2-15.8h-8.2l-1.4,15.8h-23.6l11.6-87.8H244.8z M232.7,606.5
			c-1.2-9.9-2.3-22.2-3.5-36.9c-2.3,16.8-3.8,29.1-4.4,36.9H232.7z"/>
		<linearGradient id="SVGID_5_" gradientUnits="userSpaceOnUse" x1="245.5211" y1="621.627" x2="308.9999" y2="558.1481">
			<stop  offset="0" style="stop-color:#2E2E2E"/>
			<stop  offset="0.1815" style="stop-color:#804632"/>
			<stop  offset="0.3133" style="stop-color:#C14E2B"/>
			<stop  offset="0.3771" style="stop-color:#DE4F26"/>
			<stop  offset="0.6201" style="stop-color:#D75028"/>
			<stop  offset="0.676" style="stop-color:#D45029"/>
			<stop  offset="0.7153" style="stop-color:#CA512D"/>
			<stop  offset="0.7815" style="stop-color:#B15236"/>
			<stop  offset="0.8667" style="stop-color:#895043"/>
			<stop  offset="0.9663" style="stop-color:#574B4E"/>
			<stop  offset="1" style="stop-color:#444851"/>
		</linearGradient>
		<path class="st12" d="M261.8,550.1h23c6.2,0,11,0.5,14.3,1.5s5.9,2.4,7.5,4.2s2.8,4.1,3.4,6.7c0.6,2.6,0.9,6.7,0.9,12.2v7.6
			c0,5.6-0.6,9.7-1.7,12.3c-1.2,2.6-3.3,4.5-6.4,5.9c-3.1,1.4-7.1,2.1-12.1,2.1h-6.1v35.3h-22.8V550.1z M284.6,565.1v22.3
			c0.7,0,1.2,0.1,1.7,0.1c2.1,0,3.6-0.5,4.4-1.5c0.8-1,1.2-3.2,1.2-6.4v-7.2c0-3-0.5-5-1.4-5.9C289.5,565.6,287.5,565.1,284.6,565.1
			z"/>
		<linearGradient id="SVGID_6_" gradientUnits="userSpaceOnUse" x1="304.9364" y1="633.2527" x2="371.138" y2="567.0511">
			<stop  offset="0" style="stop-color:#2E2E2E"/>
			<stop  offset="0.1815" style="stop-color:#804632"/>
			<stop  offset="0.3133" style="stop-color:#C14E2B"/>
			<stop  offset="0.3771" style="stop-color:#DE4F26"/>
			<stop  offset="0.6201" style="stop-color:#D75028"/>
			<stop  offset="0.676" style="stop-color:#D45029"/>
			<stop  offset="0.7153" style="stop-color:#CA512D"/>
			<stop  offset="0.7815" style="stop-color:#B15236"/>
			<stop  offset="0.8667" style="stop-color:#895043"/>
			<stop  offset="0.9663" style="stop-color:#574B4E"/>
			<stop  offset="1" style="stop-color:#444851"/>
		</linearGradient>
		<path class="st13" d="M354.2,550.1l13.1,87.8h-23.3l-1.2-15.8h-8.2l-1.4,15.8h-23.6l11.6-87.8H354.2z M342.1,606.5
			c-1.2-9.9-2.3-22.2-3.5-36.9c-2.3,16.8-3.8,29.1-4.4,36.9H342.1z"/>
		<linearGradient id="SVGID_7_" gradientUnits="userSpaceOnUse" x1="361.9049" y1="628.6612" x2="425.8529" y2="564.7133">
			<stop  offset="0" style="stop-color:#2E2E2E"/>
			<stop  offset="0.1815" style="stop-color:#804632"/>
			<stop  offset="0.3133" style="stop-color:#C14E2B"/>
			<stop  offset="0.3771" style="stop-color:#DE4F26"/>
			<stop  offset="0.6201" style="stop-color:#D75028"/>
			<stop  offset="0.676" style="stop-color:#D45029"/>
			<stop  offset="0.7153" style="stop-color:#CA512D"/>
			<stop  offset="0.7815" style="stop-color:#B15236"/>
			<stop  offset="0.8667" style="stop-color:#895043"/>
			<stop  offset="0.9663" style="stop-color:#574B4E"/>
			<stop  offset="1" style="stop-color:#444851"/>
		</linearGradient>
		<path class="st14" d="M371.1,550.1h16.2c10.8,0,18.1,0.4,21.9,1.2s6.9,3,9.3,6.4c2.4,3.4,3.6,8.9,3.6,16.3
			c0,6.8-0.8,11.4-2.5,13.8c-1.7,2.3-5,3.8-10,4.2c4.5,1.1,7.6,2.6,9.1,4.5c1.6,1.9,2.5,3.6,2.9,5.2s0.6,5.9,0.6,13v23.1h-21.2
			v-29.2c0-4.7-0.4-7.6-1.1-8.7s-2.7-1.7-5.8-1.7v39.6h-22.8V550.1z M393.9,565.1v19.5c2.6,0,4.4-0.4,5.4-1.1s1.5-3,1.5-6.9v-4.8
			c0-2.8-0.5-4.6-1.5-5.5C398.4,565.5,396.6,565.1,393.9,565.1z"/>
		<linearGradient id="SVGID_8_" gradientUnits="userSpaceOnUse" x1="422.8753" y1="629.8336" x2="493.9634" y2="558.7455">
			<stop  offset="0" style="stop-color:#2E2E2E"/>
			<stop  offset="0.1815" style="stop-color:#804632"/>
			<stop  offset="0.3133" style="stop-color:#C14E2B"/>
			<stop  offset="0.3771" style="stop-color:#DE4F26"/>
			<stop  offset="0.6201" style="stop-color:#D75028"/>
			<stop  offset="0.676" style="stop-color:#D45029"/>
			<stop  offset="0.7153" style="stop-color:#CA512D"/>
			<stop  offset="0.7815" style="stop-color:#B15236"/>
			<stop  offset="0.8667" style="stop-color:#895043"/>
			<stop  offset="0.9663" style="stop-color:#574B4E"/>
			<stop  offset="1" style="stop-color:#444851"/>
		</linearGradient>
		<path class="st15" d="M485.3,550.1l-13.1,39.6l14.3,48.1H463l-9.2-37.6v37.6h-22.8v-87.8h22.8v34.1l10.2-34.1H485.3z"/>
	</g>
</g>
</svg>
