<?xml version="1.0" encoding="utf-8"?>
<!-- Generator: Adobe Illustrator 23.0.0, SVG Export Plug-In . SVG Version: 6.00 Build 0)  -->
<svg version="1.1" xmlns="http://www.w3.org/2000/svg" xmlns:xlink="http://www.w3.org/1999/xlink" x="0px" y="0px"
	 viewBox="0 0 568.1 723.4" style="enable-background:new 0 0 568.1 723.4;" xml:space="preserve">
<style type="text/css">
	.st0{fill:#FFFFFF;}
	.st1{fill:#7A7C7D;}
	.st2{fill:#364652;}
	.st3{fill:#2E2E2E;}
	.st4{fill:#1D7C55;}
	.st5{fill:#DE4E26;}
	.st6{fill:url(#SVGID_1_);stroke:#2E2E2E;stroke-width:2;stroke-miterlimit:10;}
	.st7{fill:url(#SVGID_2_);stroke:#2E2E2E;stroke-width:2;stroke-miterlimit:10;}
	.st8{fill:url(#SVGID_3_);stroke:#2E2E2E;stroke-width:2;stroke-miterlimit:10;}
	.st9{fill:url(#SVGID_4_);stroke:#2E2E2E;stroke-width:2;stroke-miterlimit:10;}
</style>
<g id="Calque_5">
	<polygon class="st0" points="306,297 69.3,158.7 311.4,21.3 548,159.2 	"/>
	<polygon class="st0" points="545.9,158.7 552.2,432.8 306,573.9 304,296.5 	"/>
	<polygon class="st0" points="310.6,578.3 67.7,438.8 67.7,162 308.5,296.6 	"/>
</g>
<g id="bloc_x5F_ref">
	<g>
		<g>
			<g>
				<path class="st1" d="M557.3,154.3C557.3,154.3,557.3,154.3,557.3,154.3L557.3,154.3c-3.5-6-8.5-11.1-14.6-14.6l-218.2-126
					c-5.3-3.1-11.3-4.7-17.5-4.7c-6.1,0-12.2,1.6-17.5,4.7l-27.9,16.1c-4.2,2.4-5.6,7.7-3.2,11.9c2.4,4.2,7.7,5.6,11.9,3.2
					l27.9-16.1c5.3-3.1,12.2-3.1,17.5,0l218.2,126c0.8,0.5,1.5,1,2.3,1.5L306.9,287.5l-33.1-18.9c-4.2-2.4-9.5-0.9-11.9,3.2
					c-2.4,4.2-0.9,9.5,3.2,11.9l33.1,18.9v266.3L76.9,441.1c-5-2.9-8.2-8.3-8.2-14.1v-19.4c0-4.8-3.9-8.7-8.7-8.7s-8.7,3.9-8.7,8.7
					V427c0,12,6.5,23.2,16.9,29.2l234.4,135.4c1.3,0.8,2.9,1.2,4.4,1.2c1.5,0,3-0.4,4.4-1.2l85.9-49.6c4.2-2.4,5.6-7.7,3.2-11.9
					c-2.4-4.2-7.8-5.6-11.9-3.2l-72.8,42V302.6L545,171.5c0,0.3,0.1,0.6,0.1,0.9c0,0.2,0,0.4,0.1,0.5c0,0.5,0,1,0,1.5V427
					c0,5.8-3.1,11.2-8.2,14.1l-118.3,68.3c-4.2,2.4-5.6,7.7-3.2,11.9c2.4,4.2,7.8,5.6,11.9,3.2l118.3-68.3
					c10.4-6,16.9-17.2,16.9-29.2V174.3C562.6,167.3,560.8,160.4,557.3,154.3z"/>
			</g>
		</g>
		<g>
			<g>
				<path class="st1" d="M243.5,251.2L78,156.5c1.2-1.1,2.6-2,4-2.9l158-91.2c4.2-2.4,5.6-7.7,3.2-11.9c-2.4-4.2-7.7-5.6-11.9-3.2
					l-158,91.2c-6.7,3.8-12.2,9.4-16.1,16.1c-3.9,6.7-5.9,14.3-5.9,22.1v196c0,4.8,3.9,8.7,8.7,8.7s8.7-3.9,8.7-8.7v-196
					c0-0.8,0-1.5,0.1-2.3c0-0.2,0-0.4,0.1-0.6c0.1-0.7,0.2-1.3,0.3-2c0-0.1,0-0.1,0-0.2l165.6,94.7c4.2,2.4,9.5,0.9,11.9-3.2
					C249.1,258.9,247.7,253.6,243.5,251.2z"/>
			</g>
		</g>
	</g>
</g>
<g id="bloc">
	<polygon class="st2" points="371.6,270 381.3,323.5 314.7,363.3 314.7,302.6 	"/>
	<polygon class="st3" points="481.7,314.7 545.3,284.9 545.3,381.9 481.7,416.1 	"/>
	<polygon class="st2" points="545.2,398.1 545.3,436.4 486.6,470.6 486.6,433.6 	"/>
	<polygon class="st4" points="363.8,368.6 314.7,389.2 314.7,569.9 460.8,485.6 455.1,404.9 368,449.6 	"/>
	<polygon class="st3" points="407.5,249.5 415.8,293 482.9,259.4 476.1,210.2 	"/>
	<polygon class="st2" points="507.4,193 509.9,244.3 545.2,222.9 545,171.5 	"/>
	<polygon class="st2" points="386.8,373.1 386.8,417.7 418.5,395.4 	"/>
	<polygon class="st3" points="139.1,211.1 136.6,282.3 211,314.5 214.1,253.7 	"/>
	<polygon class="st4" points="231.3,263.3 298.2,301.6 298.2,492 244.1,462.2 246.7,399.7 226.5,367.6 	"/>
	<polygon class="st3" points="172.7,403.3 168.9,431.5 68.2,385.8 68.2,352.3 	"/>
	<polygon class="st2" points="160.7,457.8 157.4,487.6 68.2,437.2 68.2,407.9 	"/>
	<polygon class="st4" points="68,170.5 117.3,198.7 111.6,305.9 67.7,297 	"/>
	<polygon class="st3" points="298.2,513.7 298.4,569.6 257.8,546.1 257.8,492.4 	"/>
	<polygon class="st3" points="183.2,153.3 127.2,185.3 77,156.5 132.9,123.7 	"/>
	<polygon class="st3" points="298.1,119.6 218.9,158.6 272.1,185.2 352,148.5 	"/>
	<polygon class="st4" points="386,69.4 329,98 398.1,136.6 454.5,108.1 	"/>
	<polygon class="st4" points="374.6,213.2 403.9,232 476.8,190.8 450.3,172.5 	"/>
	<polygon class="st2" points="359.1,213.9 391.8,238.4 307.2,288.3 225.5,240.8 281.6,207.9 324.5,232.2 	"/>
	<polygon class="st2" points="218.9,121 346.9,47.5 308.6,22.6 183.2,94.2 	"/>
	<polygon class="st3" points="508.9,172.5 536.6,155.9 494.8,132.3 467.5,148.1 	"/>
	<polygon class="st2" points="197.3,225.3 221.4,207.9 182.4,185.3 155.4,200.9 	"/>
	<polygon class="st2" points="176,320.1 176,367.6 134.8,343.8 134.8,301.1 	"/>
	<polygon class="st2" points="227.1,426.5 225.2,455.7 186.6,440.1 188.9,409.6 	"/>
</g>
<g id="ping">
	<g>
		<g>
			<g id="XMLID_1_">
				<g>
					<path class="st5" d="M365,111c17.4,0,31.5,14.2,31.5,31.5c0,21.5-28.3,53.3-29.5,54.6c-1.1,1.3-3.1,1.3-4.2,0
						c-1.2-1.4-29.4-33.1-29.4-54.6C333.5,125.1,347.6,111,365,111z M380.9,142.5c0-8.7-7.1-15.9-15.9-15.9
						c-8.7,0-15.9,7.1-15.9,15.9s7.1,15.9,15.9,15.9C373.8,158.4,380.9,151.3,380.9,142.5z"/>
					<circle class="st0" cx="365" cy="142.5" r="15.9"/>
				</g>
				<g>
				</g>
			</g>
		</g>
	</g>
	<g>
		<g>
			<g id="XMLID_3_">
				<g>
					<path class="st5" d="M202.4,555.9c-17.4,0-31.5-14.2-31.5-31.5c0-21.5,28.3-53.3,29.5-54.6c1.1-1.3,3.1-1.3,4.2,0
						c1.2,1.4,29.4,33.1,29.4,54.6C234,541.7,219.8,555.9,202.4,555.9z M186.6,524.3c0,8.7,7.1,15.9,15.9,15.9s15.9-7.1,15.9-15.9
						s-7.1-15.9-15.9-15.9S186.6,515.6,186.6,524.3z"/>
					<circle class="st0" cx="202.4" cy="524.3" r="15.9"/>
				</g>
				<g>
				</g>
			</g>
		</g>
	</g>
	<g>
		<g>
			<g id="XMLID_4_">
				<g>
					<path class="st5" d="M5.7,332.6c0-17.4,14.2-31.5,31.5-31.5c21.5,0,53.3,28.3,54.6,29.5c1.3,1.1,1.3,3.1,0,4.2
						c-1.4,1.2-33.1,29.4-54.6,29.4C19.8,364.1,5.7,350,5.7,332.6z M37.2,316.7c-8.7,0-15.9,7.1-15.9,15.9c0,8.7,7.1,15.9,15.9,15.9
						s15.9-7.1,15.9-15.9C53.1,323.8,46,316.7,37.2,316.7z"/>
					<circle class="st0" cx="37.2" cy="332.6" r="15.9"/>
				</g>
				<g>
				</g>
			</g>
		</g>
	</g>
	<g>
		<g>
			<g id="XMLID_5_">
				<g>
					<path class="st5" d="M498.6,340.9c0.4,17.4-13.5,31.8-30.9,32.2c-21.5,0.5-53.9-27.1-55.2-28.3c-1.3-1.1-1.3-3-0.1-4.2
						c1.3-1.2,32.4-30.1,54-30.6C483.8,309.7,498.2,323.5,498.6,340.9z M467.4,357.5c8.7-0.2,15.7-7.5,15.5-16.2
						c-0.2-8.7-7.5-15.7-16.2-15.5c-8.7,0.2-15.7,7.5-15.5,16.2C451.4,350.7,458.6,357.6,467.4,357.5z"/>
					<circle class="st0" cx="467" cy="341.6" r="15.9"/>
				</g>
				<g>
				</g>
			</g>
		</g>
	</g>
</g>
<g id="Titre_2">
	<g>
		<linearGradient id="SVGID_1_" gradientUnits="userSpaceOnUse" x1="154.6777" y1="700.3942" x2="238.605" y2="616.4669">
			<stop  offset="0" style="stop-color:#2E2E2E"/>
			<stop  offset="0.1815" style="stop-color:#804632"/>
			<stop  offset="0.3133" style="stop-color:#C14E2B"/>
			<stop  offset="0.3771" style="stop-color:#DE4F26"/>
			<stop  offset="0.6201" style="stop-color:#D75028"/>
			<stop  offset="0.676" style="stop-color:#D45029"/>
			<stop  offset="0.7153" style="stop-color:#CA512D"/>
			<stop  offset="0.7815" style="stop-color:#B15236"/>
			<stop  offset="0.8667" style="stop-color:#895043"/>
			<stop  offset="0.9663" style="stop-color:#574B4E"/>
			<stop  offset="1" style="stop-color:#444851"/>
		</linearGradient>
		<path class="st6" d="M228.4,606.2L212.9,653l16.9,56.8H202l-10.9-44.4v44.4h-26.9V606.2h26.9v40.3l12-40.3H228.4z"/>
		<linearGradient id="SVGID_2_" gradientUnits="userSpaceOnUse" x1="229.3802" y1="704.7546" x2="322.7643" y2="611.3704">
			<stop  offset="0" style="stop-color:#2E2E2E"/>
			<stop  offset="0.1815" style="stop-color:#804632"/>
			<stop  offset="0.3133" style="stop-color:#C14E2B"/>
			<stop  offset="0.3771" style="stop-color:#DE4F26"/>
			<stop  offset="0.6201" style="stop-color:#D75028"/>
			<stop  offset="0.676" style="stop-color:#D45029"/>
			<stop  offset="0.7153" style="stop-color:#CA512D"/>
			<stop  offset="0.7815" style="stop-color:#B15236"/>
			<stop  offset="0.8667" style="stop-color:#895043"/>
			<stop  offset="0.9663" style="stop-color:#574B4E"/>
			<stop  offset="1" style="stop-color:#444851"/>
		</linearGradient>
		<path class="st7" d="M317.6,606.2v103.6h-23.6l0-70l-9.4,70H268l-9.9-68.4l0,68.4h-23.6V606.2h34.9c1,6.2,2.1,13.6,3.2,22
			l3.8,26.4l6.2-48.4H317.6z"/>
		<linearGradient id="SVGID_3_" gradientUnits="userSpaceOnUse" x1="316.9038" y1="704.4305" x2="395.0627" y2="626.2717">
			<stop  offset="0" style="stop-color:#2E2E2E"/>
			<stop  offset="0.1815" style="stop-color:#804632"/>
			<stop  offset="0.3133" style="stop-color:#C14E2B"/>
			<stop  offset="0.3771" style="stop-color:#DE4F26"/>
			<stop  offset="0.6201" style="stop-color:#D75028"/>
			<stop  offset="0.676" style="stop-color:#D45029"/>
			<stop  offset="0.7153" style="stop-color:#CA512D"/>
			<stop  offset="0.7815" style="stop-color:#B15236"/>
			<stop  offset="0.8667" style="stop-color:#895043"/>
			<stop  offset="0.9663" style="stop-color:#574B4E"/>
			<stop  offset="1" style="stop-color:#444851"/>
		</linearGradient>
		<path class="st8" d="M375,606.2l15.4,103.6h-27.5l-1.4-18.6h-9.6l-1.6,18.6h-27.9l13.7-103.6H375z M360.8,672.9
			c-1.4-11.7-2.7-26.2-4.1-43.5c-2.7,19.8-4.5,34.4-5.2,43.5H360.8z"/>
		<linearGradient id="SVGID_4_" gradientUnits="userSpaceOnUse" x1="375.857" y1="690.7053" x2="450.8008" y2="615.7615">
			<stop  offset="0" style="stop-color:#2E2E2E"/>
			<stop  offset="0.1815" style="stop-color:#804632"/>
			<stop  offset="0.3133" style="stop-color:#C14E2B"/>
			<stop  offset="0.3771" style="stop-color:#DE4F26"/>
			<stop  offset="0.6201" style="stop-color:#D75028"/>
			<stop  offset="0.676" style="stop-color:#D45029"/>
			<stop  offset="0.7153" style="stop-color:#CA512D"/>
			<stop  offset="0.7815" style="stop-color:#B15236"/>
			<stop  offset="0.8667" style="stop-color:#895043"/>
			<stop  offset="0.9663" style="stop-color:#574B4E"/>
			<stop  offset="1" style="stop-color:#444851"/>
		</linearGradient>
		<path class="st9" d="M395,606.2h27.1c7.3,0,13,0.6,16.9,1.7c3.9,1.2,6.9,2.8,8.9,5c2,2.2,3.3,4.8,4,7.9c0.7,3.1,1.1,7.9,1.1,14.4
			v9c0,6.6-0.7,11.4-2,14.5s-3.9,5.4-7.5,7c-3.6,1.6-8.4,2.4-14.3,2.4H422v41.7H395V606.2z M422,624v26.4c0.8,0,1.4,0.1,2,0.1
			c2.5,0,4.2-0.6,5.2-1.8c1-1.2,1.4-3.7,1.4-7.6v-8.5c0-3.5-0.6-5.8-1.7-6.9S425.5,624,422,624z"/>
	</g>
</g>
</svg>
